HIERARCHY
ROOT Hips
{
  OFFSET 203.405 97.8195 63.8683
  CHANNELS 6 Xposition Yposition Zposition Zrotation Xrotation Yrotation
  JOINT RightUpLeg
  {
    OFFSET -8.9458 -8.66707 0.101652
    CHANNELS 3 Zrotation Xrotation Yrotation
    JOINT RightLeg
    {
      OFFSET 0 -44.4227 1.3727
      CHANNELS 3 Zrotation Xrotation Yrotation
      JOINT RightFoot
      {
        OFFSET 0.253549 -42.0924 -1.46059
        CHANNELS 3 Zrotation Xrotation Yrotation
        JOINT RightToes
        {
          OFFSET 0.04 -4.41509 8.4991
          CHANNELS 3 Zrotation Xrotation Yrotation
          End Site
          {
            OFFSET -0.08 -0.137448 9.77979
          }
        }
      }
    }
  }
  JOINT Spine
  {
    OFFSET 0 11.8905 0
    CHANNELS 3 Zrotation Xrotation Yrotation
    JOINT Spine1
    {
      OFFSET 0 25.6574 0.127663
      CHANNELS 3 Zrotation Xrotation Yrotation
      JOINT HEad
      {
        OFFSET 0 8.73416 0.011341
        CHANNELS 3 Zrotation Xrotation Yrotation
        End Site
        {
          OFFSET -0.29 12.7742 2.51395
        }
      }
      JOINT LeftShoulder1
      {
        OFFSET 8.99 -0.362252 -0.22
        CHANNELS 3 Zrotation Xrotation Yrotation
        JOINT LeftArm
        {
          OFFSET 10.2827 -0.00338 0.322123
          CHANNELS 3 Zrotation Xrotation Yrotation
          JOINT LeftForeArm
          {
            OFFSET 32.7669 0.099144 -1.42434
            CHANNELS 3 Zrotation Xrotation Yrotation
            JOINT LeftHand
            {
              OFFSET 27.5643 0.085362 1.02216
              CHANNELS 3 Zrotation Xrotation Yrotation
              End Site
              {
                OFFSET 16.7443 -0.6 1.50291
              }
            }
          }
        }
      }
      JOINT RightShoulder
      {
        OFFSET -8.99 -0.362252 -0.22
        CHANNELS 3 Zrotation Xrotation Yrotation
        JOINT RightArm
        {
          OFFSET -10.2827 -0.00338 0.322123
          CHANNELS 3 Zrotation Xrotation Yrotation
          JOINT RightForeArm
          {
            OFFSET -32.8971 0.099144 -1.42434
            CHANNELS 3 Zrotation Xrotation Yrotation
            JOINT RightHand
            {
              OFFSET -27.4921 0.085362 1.02216
              CHANNELS 3 Zrotation Xrotation Yrotation
              End Site
              {
                OFFSET -16.6312 -0.6 1.50291
              }
            }
          }
        }
      }
    }
  }
  JOINT LeftUpLeg
  {
    OFFSET 8.9458 -8.66707 0.101652
    CHANNELS 3 Zrotation Xrotation Yrotation
    JOINT LeftLeg
    {
      OFFSET 0 -44.4227 1.3727
      CHANNELS 3 Zrotation Xrotation Yrotation
      JOINT LeftFoot
      {
        OFFSET -0.253549 -42.0924 -1.46059
        CHANNELS 3 Zrotation Xrotation Yrotation
        JOINT LeftToes
        {
          OFFSET -0.04 -4.41509 8.4991
          CHANNELS 3 Zrotation Xrotation Yrotation
          End Site
          {
            OFFSET 0.08 -0.047448 9.77979
          }
        }
      }
    }
  }
}
MOTION
Frames:	10
Frame Time:	0.0166667
-4.1303	98.4449	-225.323	-5.20135	-11.2743	158.339	-18.1602	-48.3456	-10.2998	35.9582	54.3994	-43.1926	9.75266	-4.88211	-20.1469	0.0462048	0.000533964	0.662642	-0.19385	0.0880401	-0.577952	-0.386797	0.18081	-1.15583	4.97889	20.6486	4.60164	7.95E-16	0.00E+00	0.00E+00	-55.2201	50.5364	-28.1871	-38.2086	19.1047	-98.9454	-41.2015	-15.6547	22.0179	7.95E-16	0.00E+00	0.00E+00	70.3197	54.6667	11.4073	20.0611	17.4852	83.8342	39.9923	3.73293	-0.580815	7.22837	-32.5422	18.1899	4.90353	37.0323	-7.50968	-13.4755	-17.5217	-3.37939	1.43E-14	3.19E-14	3.18E-15
-3.8953	98.6712	-226.313	-5.38499	-11.1644	157.282	-18.554	-48.623	-11.6049	32.0335	51.9129	-39.3123	9.67825	-5.15736	-19.0516	0.0462048	0.000533964	0.662642	-0.235605	0.0888625	-0.646614	-0.470187	0.183157	-1.29308	4.81744	20.766	4.98299	-7.95E-16	-1.59E-15	-3.18E-15	-55.1727	50.7503	-28.4597	-38.1364	19.0025	-99.0011	-41.2227	-15.6608	22.0564	-7.95E-16	-1.59E-15	-3.18E-15	70.1731	54.4871	11.3855	20.1411	17.6267	83.7815	39.9009	3.62061	-0.358973	7.36993	-31.4559	18.9872	4.74459	36.7087	-7.20105	-13.8099	-17.6695	-3.51071	1.10E-14	3.17E-14	3.18E-15
-3.6119	98.8551	-227.279	-5.55795	-10.9487	156.325	-18.8193	-48.7318	-12.414	28.3884	49.1644	-36.1876	9.7892	-5.56867	-18.3302	0.0462048	0.000533964	0.662642	-0.273241	0.0975309	-0.713728	-0.545239	0.201236	-1.42721	4.60935	20.916	5.3011	7.95E-16	0.00E+00	3.18E-15	-55.1594	50.9836	-28.6996	-38.073	18.8961	-99.0448	-41.2508	-15.6522	22.1018	7.95E-16	0.00E+00	3.18E-15	70.1145	54.3251	11.3002	20.2404	17.7303	83.7037	39.8402	3.49507	-0.18515	7.47508	-30.3372	19.8	4.58793	36.4945	-6.84563	-14.2029	-17.7591	-3.77484	1.68E-14	3.20E-14	3.18E-15
-3.2819	98.9955	-228.202	-5.75612	-10.6571	155.443	-18.9411	-48.736	-12.8296	24.9471	46.2874	-33.8116	9.83815	-5.83995	-16.8785	0.0462048	0.000533964	0.662642	-0.304493	0.106292	-0.78717	-0.607488	0.219536	-1.57399	4.35221	21.0874	5.57308	0.00E+00	-1.59E-15	0.00E+00	-55.2467	51.1759	-28.8332	-38.0105	18.8028	-99.0789	-41.2821	-15.6372	22.1568	0.00E+00	-1.59E-15	0.00E+00	70.1032	54.1581	11.1572	20.3353	17.8884	83.6163	39.8315	3.39974	-0.0695741	7.51608	-29.2685	20.5104	4.40582	36.4263	-6.37837	-14.6735	-17.7663	-4.07534	1.38E-14	3.24E-14	4.77E-15
-2.9164	99.0887	-229.063	-5.978	-10.3093	154.629	-18.8923	-48.6639	-12.9566	21.6078	43.377	-32.0323	9.88514	-5.99992	-14.8611	0.0462048	0.000533964	0.662642	-0.327205	0.114768	-0.852101	-0.652657	0.237167	-1.70376	4.08659	21.2449	5.73634	1.59E-15	0.00E+00	-3.18E-15	-55.3916	51.3133	-28.8678	-37.9332	18.7627	-99.1269	-41.2974	-15.6336	22.2061	1.59E-15	0.00E+00	-3.18E-15	70.1122	53.9737	10.9826	20.365	18.0973	83.552	39.8557	3.36312	-0.000186723	7.49126	-28.3076	21.0123	4.2105	36.5479	-5.93747	-15.1932	-17.7308	-4.2824	1.52E-14	3.22E-14	3.18E-15
-2.5169	99.144	-229.899	-6.21191	-9.93732	153.852	-18.6966	-48.5197	-12.8513	18.3497	40.4641	-30.7283	10.0692	-6.06131	-12.3057	0.0462048	0.000533964	0.662642	-0.343093	0.125872	-0.898061	-0.684161	0.259884	-1.79558	3.84597	21.3634	5.79865	0.00E+00	4.77E-15	0.00E+00	-55.5299	51.3791	-28.8473	-37.8216	18.759	-99.2047	-41.3015	-15.6557	22.2432	0.00E+00	4.77E-15	0.00E+00	70.1302	53.8289	10.8531	20.3112	18.2739	83.5223	39.8701	3.37684	0.021937	7.43053	-27.4279	21.5941	4.15172	36.7955	-5.80341	-15.7075	-17.6778	-4.44573	1.20E-14	3.26E-14	3.18E-15
-2.0618	99.1754	-230.745	-6.45935	-9.57314	153.127	-18.4351	-48.2727	-12.6198	15.2102	37.5807	-29.8799	10.5396	-6.14658	-9.41703	0.0462048	0.000533964	0.662642	-0.352583	0.134481	-0.928147	-0.702931	0.277433	-1.85567	3.62555	21.4408	5.79956	1.59E-15	0.00E+00	-6.36E-15	-55.6625	51.3677	-28.769	-37.7205	18.7758	-99.2733	-41.3215	-15.6662	22.2715	1.59E-15	0.00E+00	-6.36E-15	70.1611	53.773	10.7989	20.2002	18.3565	83.4966	39.9173	3.40507	0.0146537	7.36912	-26.57	22.2562	4.14548	37.0715	-5.77852	-16.2379	-17.5859	-4.68355	1.51E-14	3.18E-14	0.00E+00
-1.5268	99.1848	-231.575	-6.7048	-9.27415	152.523	-18.027	-47.9106	-12.0916	12.2756	34.6006	-29.1403	11.1355	-6.32001	-6.8795	0.0462048	0.000533964	0.662642	-0.339162	0.135574	-0.963949	-0.675983	0.279612	-1.92731	3.41984	21.4446	5.76451	-1.59E-15	0.00E+00	0.00E+00	-55.7694	51.2838	-28.6664	-37.6351	18.8069	-99.3295	-41.3394	-15.6628	22.2828	-1.59E-15	0.00E+00	0.00E+00	70.1827	53.7995	10.8313	20.0486	18.3656	83.4637	40.0055	3.42552	-0.0245117	7.3506	-25.8045	22.6222	3.97035	37.3994	-5.48072	-16.8267	-17.4404	-4.97265	1.30E-14	3.26E-14	1.59E-15
-0.9255	99.1625	-232.356	-6.95738	-8.99215	152.113	-17.6347	-47.4774	-11.7049	9.51734	31.882	-28.2956	11.6193	-6.54414	-5.02724	0.0462048	0.000533964	0.662642	-0.312252	0.132703	-1.0107	-0.622101	0.273671	-2.02089	3.25878	21.3841	5.62738	7.95E-16	-1.59E-15	0.00E+00	-55.8258	51.2197	-28.5611	-37.5865	18.8453	-99.384	-41.3365	-15.6174	22.2768	7.95E-16	-1.59E-15	0.00E+00	70.2357	53.8269	10.8468	19.9011	18.3438	83.4381	40.1254	3.43968	-0.0819366	7.28882	-25.1532	22.5249	3.63878	37.8091	-4.92985	-17.4384	-17.2576	-5.23139	1.45E-14	3.34E-14	3.18E-15
-0.2622	99.0981	-233.126	-7.1518	-8.61589	151.863	-17.4092	-46.9609	-11.3251	7.51749	29.8543	-27.8496	12.0831	-7.14034	-3.66273	0.0462048	0.000533964	0.662642	-0.271449	0.15832	-1.04655	-0.539948	0.324349	-2.09256	3.14989	21.3006	5.36197	-8.83E-32	1.59E-15	3.18E-15	-55.8166	51.246	-28.4999	-37.5873	18.8397	-99.4194	-41.3365	-15.538	22.261	-8.83E-32	1.59E-15	3.18E-15	70.3523	53.8616	10.798	19.7843	18.2815	83.4169	40.2313	3.45292	-0.13949	7.22272	-24.4279	22.3579	3.33084	38.2879	-4.59644	-17.9698	-17.1389	-5.43562	1.55E-14	3.10E-14	4.77E-15
